%TF.GenerationSoftware,Vikhr30,pcbgen,1.0*%
%TF.CreationDate,2026-10-04T00:00:00+05:00*%
%TF.ProjectId,vikhr30-efi,56494b48-5233-4045-8649-303030303041,A*%
%TF.SameCoordinates,Original*%
%TF.FileFunction,Soldermask,Bot*%
%TF.FilePolarity,Negative*%
%FSLAX46Y46*%
%MOMM*%
%LPD*%
%ADD10R,1.8000X1.8000*%
%ADD11C,1.8000*%
%ADD12R,3.3000X3.3000*%
%ADD13C,3.3000*%
%ADD14R,1.8500X1.8500*%
%ADD15C,1.8500*%
%ADD16R,1.7000X1.7000*%
%ADD17C,1.7000*%
%ADD18C,2.6000*%
%ADD19R,2.6000X2.6000*%
%ADD20R,2.9000X2.9000*%
%ADD21C,2.9000*%
%ADD22R,2.0000X2.7000*%
%ADD23O,2.0000X2.7000*%
%ADD24R,2.0000X2.0000*%
%ADD25C,2.0000*%
%ADD26R,1.6000X1.6000*%
%ADD27C,1.6000*%
%ADD28C,3.4000*%
G01*
G75*
D10*
X106260000Y64800000D03*
X106260000Y49560000D03*
D11*
X103720000Y64800000D03*
X103720000Y49560000D03*
X101180000Y64800000D03*
X101180000Y49560000D03*
X98640000Y64800000D03*
X98640000Y49560000D03*
X96100000Y64800000D03*
X96100000Y49560000D03*
X93560000Y64800000D03*
X93560000Y49560000D03*
X91020000Y64800000D03*
X91020000Y49560000D03*
X88480000Y64800000D03*
X88480000Y49560000D03*
X85940000Y64800000D03*
X85940000Y49560000D03*
X83400000Y64800000D03*
X83400000Y49560000D03*
X80860000Y64800000D03*
X80860000Y49560000D03*
X78320000Y64800000D03*
X78320000Y49560000D03*
X75780000Y64800000D03*
X75780000Y49560000D03*
X73240000Y64800000D03*
X73240000Y49560000D03*
X70700000Y64800000D03*
X70700000Y49560000D03*
X68160000Y64800000D03*
X68160000Y49560000D03*
X65620000Y64800000D03*
X65620000Y49560000D03*
X63080000Y64800000D03*
X63080000Y49560000D03*
X60540000Y64800000D03*
X60540000Y49560000D03*
X58000000Y64800000D03*
X58000000Y49560000D03*
D12*
X9500000Y24500000D03*
D13*
X19500000Y24500000D03*
D12*
X9500000Y63500000D03*
D13*
X19500000Y63500000D03*
D10*
X4500000Y89000000D03*
D11*
X4500000Y86460000D03*
X4500000Y83920000D03*
X4500000Y81380000D03*
X4500000Y78840000D03*
X4500000Y76300000D03*
D14*
X10500000Y95500000D03*
D15*
X13000000Y95500000D03*
X15500000Y95500000D03*
X18000000Y95500000D03*
D11*
X8920000Y88500000D03*
X19080000Y88500000D03*
X8920000Y85500000D03*
X19080000Y85500000D03*
D16*
X23250000Y87000000D03*
D17*
X25750000Y87000000D03*
D18*
X18080000Y7000000D03*
D19*
X23160000Y7000000D03*
D18*
X28240000Y7000000D03*
D19*
X33320000Y7000000D03*
X38400000Y7000000D03*
D18*
X43480000Y7000000D03*
D20*
X30000000Y37120000D03*
D21*
X30000000Y21880000D03*
X38400000Y41570000D03*
D20*
X38400000Y64430000D03*
D10*
X7250000Y16000000D03*
D11*
X10750000Y16000000D03*
D16*
X134250000Y60000000D03*
D17*
X136750000Y60000000D03*
D19*
X48560000Y7000000D03*
D18*
X53640000Y7000000D03*
D19*
X66340000Y7000000D03*
D18*
X71420000Y7000000D03*
D11*
X46920000Y44300000D03*
X57080000Y44300000D03*
X57080000Y41500000D03*
X46920000Y41500000D03*
X46920000Y38700000D03*
X57080000Y38700000D03*
X46920000Y35900000D03*
X57080000Y35900000D03*
X65420000Y44300000D03*
X75580000Y44300000D03*
X75580000Y41500000D03*
X65420000Y41500000D03*
X65420000Y38700000D03*
X75580000Y38700000D03*
X65420000Y35900000D03*
X75580000Y35900000D03*
D19*
X81580000Y7000000D03*
D18*
X86660000Y7000000D03*
D22*
X86660000Y22000000D03*
D23*
X89200000Y22000000D03*
X91740000Y22000000D03*
D24*
X81580000Y13000000D03*
D25*
X81580000Y23160000D03*
D11*
X82920000Y44300000D03*
X93080000Y44300000D03*
X93080000Y41500000D03*
X82920000Y41500000D03*
D19*
X96820000Y7000000D03*
D18*
X101900000Y7000000D03*
D22*
X101900000Y22000000D03*
D23*
X104440000Y22000000D03*
X106980000Y22000000D03*
D24*
X96820000Y13000000D03*
D25*
X96820000Y23160000D03*
D11*
X96420000Y44300000D03*
X106580000Y44300000D03*
X106580000Y41500000D03*
X96420000Y41500000D03*
D19*
X112060000Y7000000D03*
D18*
X117140000Y7000000D03*
D26*
X115660000Y18500000D03*
D27*
X118200000Y18500000D03*
X120740000Y18500000D03*
D24*
X112060000Y13000000D03*
D25*
X112060000Y23160000D03*
D11*
X110520000Y29500000D03*
X120680000Y29500000D03*
X120680000Y26700000D03*
X110520000Y26700000D03*
D19*
X122220000Y7000000D03*
D18*
X127300000Y7000000D03*
X132380000Y7000000D03*
X137460000Y7000000D03*
D11*
X130960000Y37500000D03*
X136040000Y37500000D03*
D16*
X126750000Y16000000D03*
D17*
X124250000Y16000000D03*
D14*
X38000000Y95500000D03*
D15*
X40500000Y95500000D03*
D14*
X47000000Y95500000D03*
D15*
X49500000Y95500000D03*
D14*
X58000000Y95500000D03*
D15*
X60500000Y95500000D03*
D14*
X77000000Y95500000D03*
D15*
X79500000Y95500000D03*
D14*
X87500000Y95500000D03*
D15*
X90000000Y95500000D03*
D14*
X97000000Y95500000D03*
D15*
X99500000Y95500000D03*
X102000000Y95500000D03*
D14*
X107500000Y95500000D03*
D15*
X110000000Y95500000D03*
X112500000Y95500000D03*
D14*
X119000000Y95500000D03*
D15*
X121500000Y95500000D03*
X124000000Y95500000D03*
D11*
X37500000Y77840000D03*
X37500000Y88000000D03*
X40500000Y88000000D03*
X40500000Y77840000D03*
X36960000Y73500000D03*
X42040000Y73500000D03*
X46500000Y77840000D03*
X46500000Y88000000D03*
X49500000Y88000000D03*
X49500000Y77840000D03*
X45960000Y73500000D03*
X51040000Y73500000D03*
X58000000Y88000000D03*
X58000000Y77840000D03*
X57460000Y73500000D03*
X62540000Y73500000D03*
X67000000Y88000000D03*
X67000000Y77840000D03*
X70000000Y77840000D03*
X70000000Y88000000D03*
X65960000Y73500000D03*
X71040000Y73500000D03*
X75500000Y88000000D03*
X75500000Y77840000D03*
X78500000Y77840000D03*
X78500000Y88000000D03*
X81500000Y88000000D03*
X81500000Y77840000D03*
X76960000Y73500000D03*
X82040000Y73500000D03*
X86000000Y88000000D03*
X86000000Y77840000D03*
X89000000Y77840000D03*
X89000000Y88000000D03*
X92000000Y88000000D03*
X92000000Y77840000D03*
X87460000Y73500000D03*
X92540000Y73500000D03*
X96500000Y88000000D03*
X96500000Y77840000D03*
X99500000Y77840000D03*
X99500000Y88000000D03*
X102500000Y77840000D03*
X102500000Y88000000D03*
X103040000Y73500000D03*
X97960000Y73500000D03*
X107000000Y88000000D03*
X107000000Y77840000D03*
X110000000Y77840000D03*
X110000000Y88000000D03*
X113000000Y77840000D03*
X113000000Y88000000D03*
X113540000Y73500000D03*
X108460000Y73500000D03*
X119500000Y77840000D03*
X119500000Y88000000D03*
X122500000Y88000000D03*
X122500000Y77840000D03*
X124040000Y73500000D03*
X118960000Y73500000D03*
X121580000Y65600000D03*
X111420000Y65600000D03*
D28*
X4000000Y96000000D03*
X144000000Y96000000D03*
X4000000Y4000000D03*
X144000000Y4000000D03*
X22700000Y28800000D03*
X6300000Y59200000D03*
M02*
