%TF.GenerationSoftware,Vikhr30,pcbgen,1.0*%
%TF.CreationDate,2026-10-04T00:00:00+05:00*%
%TF.ProjectId,vikhr30-efi,56494b48-5233-4045-8649-303030303041,A*%
%TF.SameCoordinates,Original*%
%TF.FileFunction,Legend,Bot*%
%TF.FilePolarity,Positive*%
%FSLAX46Y46*%
%MOMM*%
%LPD*%
%ADD10C,0.2200*%
%ADD11C,0.2000*%
G01*
G75*
D10*
X63280000Y22175000D02*
X62530000Y22050000D01*
X62530000Y22050000D02*
X61780000Y21950000D01*
X61780000Y21950000D02*
X61780000Y21450000D01*
X61780000Y21450000D02*
X63280000Y21450000D01*
X63530000Y22325000D02*
X63280000Y22325000D01*
X63280000Y22325000D02*
X63280000Y21325000D01*
X63280000Y21325000D02*
X63530000Y21325000D01*
X63280000Y20725000D02*
X63030000Y20975000D01*
X63030000Y20975000D02*
X62030000Y20975000D01*
X62030000Y20975000D02*
X61780000Y20725000D01*
X61780000Y20725000D02*
X61780000Y20225000D01*
X61780000Y20225000D02*
X62030000Y19975000D01*
X62030000Y19975000D02*
X63030000Y19975000D01*
X63030000Y19975000D02*
X63280000Y20225000D01*
X63280000Y20225000D02*
X63280000Y20725000D01*
X63280000Y17525000D02*
X61780000Y17525000D01*
X61780000Y17525000D02*
X62780000Y18275000D01*
X62780000Y18275000D02*
X62780000Y17275000D01*
X63280000Y16675000D02*
X63030000Y16925000D01*
X63030000Y16925000D02*
X62030000Y16925000D01*
X62030000Y16925000D02*
X61780000Y16675000D01*
X61780000Y16675000D02*
X61780000Y16175000D01*
X61780000Y16175000D02*
X62030000Y15925000D01*
X62030000Y15925000D02*
X63030000Y15925000D01*
X63030000Y15925000D02*
X63280000Y16175000D01*
X63280000Y16175000D02*
X63280000Y16675000D01*
X62905000Y16675000D02*
X62155000Y16175000D01*
X63280000Y15325000D02*
X63030000Y15575000D01*
X63030000Y15575000D02*
X62030000Y15575000D01*
X62030000Y15575000D02*
X61780000Y15325000D01*
X61780000Y15325000D02*
X61780000Y14825000D01*
X61780000Y14825000D02*
X62030000Y14575000D01*
X62030000Y14575000D02*
X63030000Y14575000D01*
X63030000Y14575000D02*
X63280000Y14825000D01*
X63280000Y14825000D02*
X63280000Y15325000D01*
X62905000Y15325000D02*
X62155000Y14825000D01*
X63280000Y12875000D02*
X61780000Y12875000D01*
X61780000Y12875000D02*
X61780000Y12125000D01*
X61780000Y12125000D02*
X62030000Y11875000D01*
X62030000Y11875000D02*
X62280000Y11875000D01*
X62280000Y11875000D02*
X62530000Y12125000D01*
X62530000Y12125000D02*
X62530000Y12875000D01*
X62530000Y12125000D02*
X62780000Y11875000D01*
X62780000Y11875000D02*
X63030000Y11875000D01*
X63030000Y11875000D02*
X63280000Y12125000D01*
X63280000Y12125000D02*
X63280000Y12875000D01*
D11*
X32975000Y80750000D02*
X32475000Y79250000D01*
X32475000Y79250000D02*
X31975000Y80750000D01*
X31375000Y79250000D02*
X30875000Y79250000D01*
X31125000Y79250000D02*
X31125000Y80750000D01*
X31375000Y80750000D02*
X30875000Y80750000D01*
X30275000Y79250000D02*
X30275000Y80750000D01*
X29275000Y80750000D02*
X30275000Y79875000D01*
X29900000Y80150000D02*
X29275000Y79250000D01*
X28925000Y79250000D02*
X28925000Y80750000D01*
X27925000Y79250000D02*
X27925000Y80750000D01*
X28925000Y80000000D02*
X27925000Y80000000D01*
X27575000Y79250000D02*
X27575000Y80750000D01*
X27575000Y80750000D02*
X26825000Y80750000D01*
X26825000Y80750000D02*
X26575000Y80500000D01*
X26575000Y80500000D02*
X26575000Y80250000D01*
X26575000Y80250000D02*
X26825000Y80000000D01*
X26825000Y80000000D02*
X27575000Y80000000D01*
X27075000Y80000000D02*
X26575000Y79250000D01*
X26100000Y80000000D02*
X25350000Y80000000D01*
X24875000Y80500000D02*
X24625000Y80750000D01*
X24625000Y80750000D02*
X24125000Y80750000D01*
X24125000Y80750000D02*
X23875000Y80500000D01*
X23875000Y80500000D02*
X23875000Y80250000D01*
X23875000Y80250000D02*
X24125000Y80000000D01*
X24125000Y80000000D02*
X24500000Y80000000D01*
X24125000Y80000000D02*
X23875000Y79750000D01*
X23875000Y79750000D02*
X23875000Y79500000D01*
X23875000Y79500000D02*
X24125000Y79250000D01*
X24125000Y79250000D02*
X24625000Y79250000D01*
X24625000Y79250000D02*
X24875000Y79500000D01*
X23275000Y79250000D02*
X23525000Y79500000D01*
X23525000Y79500000D02*
X23525000Y80500000D01*
X23525000Y80500000D02*
X23275000Y80750000D01*
X23275000Y80750000D02*
X22775000Y80750000D01*
X22775000Y80750000D02*
X22525000Y80500000D01*
X22525000Y80500000D02*
X22525000Y79500000D01*
X22525000Y79500000D02*
X22775000Y79250000D01*
X22775000Y79250000D02*
X23275000Y79250000D01*
X23275000Y79625000D02*
X22775000Y80375000D01*
X19825000Y80750000D02*
X20825000Y80750000D01*
X20825000Y80750000D02*
X20825000Y79250000D01*
X20825000Y79250000D02*
X19825000Y79250000D01*
X20825000Y80000000D02*
X20075000Y80000000D01*
X18475000Y80750000D02*
X19475000Y80750000D01*
X19475000Y80750000D02*
X19475000Y79250000D01*
X19475000Y80000000D02*
X18725000Y80000000D01*
X17875000Y79250000D02*
X17375000Y79250000D01*
X17625000Y79250000D02*
X17625000Y80750000D01*
X17875000Y80750000D02*
X17375000Y80750000D01*
X15425000Y79250000D02*
X15425000Y80750000D01*
X15425000Y80750000D02*
X14675000Y80750000D01*
X14675000Y80750000D02*
X14425000Y80500000D01*
X14425000Y80500000D02*
X14425000Y80250000D01*
X14425000Y80250000D02*
X14675000Y80000000D01*
X14675000Y80000000D02*
X15425000Y80000000D01*
X14925000Y80000000D02*
X14425000Y79250000D01*
X13075000Y80750000D02*
X14075000Y80750000D01*
X14075000Y80750000D02*
X14075000Y79250000D01*
X14075000Y79250000D02*
X13075000Y79250000D01*
X14075000Y80000000D02*
X13325000Y80000000D01*
X12725000Y80750000D02*
X12225000Y79250000D01*
X12225000Y79250000D02*
X11725000Y80750000D01*
X10025000Y79250000D02*
X10025000Y80250000D01*
X10025000Y80250000D02*
X9525000Y80750000D01*
X9525000Y80750000D02*
X9025000Y80250000D01*
X9025000Y80250000D02*
X9025000Y79250000D01*
X10025000Y79750000D02*
X9025000Y79750000D01*
M02*
