M48
; VIKHR-30 EFI rev A - plated holes
; FORMAT={-:-/ absolute / metric / decimal}
; #@! TF.FileFunction,Plated,1,2,PTH
FMAT,2
METRIC
T1C0.400
T2C0.600
T3C0.800
T4C0.900
T5C1.000
T6C1.200
T7C1.300
T8C1.400
T9C1.500
%
G90
G05
T1
X50.6400Y20.0000
X50.6400Y16.5000
X53.6400Y20.0000
X53.6400Y16.5000
X56.6400Y20.0000
X56.6400Y16.5000
X68.4200Y20.0000
X68.4200Y16.5000
X71.4200Y20.0000
X71.4200Y16.5000
X74.4200Y20.0000
X74.4200Y16.5000
X123.4000Y29.9000
X123.4000Y28.0000
X123.4000Y26.1000
X136.6000Y29.9000
X136.6000Y28.0000
X136.6000Y26.1000
X29.7500Y43.2500
X32.7500Y43.2500
X87.2500Y41.0000
X106.7500Y53.5000
X51.7500Y75.2500
X56.7500Y33.0000
X62.2500Y38.0000
X75.2500Y33.0000
X80.7500Y38.0000
X105.7500Y26.5000
X103.5000Y38.2500
X69.5000Y71.0000
X71.2500Y69.2500
X62.0000Y47.7500
X90.0000Y38.2500
X100.0000Y71.7500
X72.7500Y63.0000
X102.5000Y52.7500
X104.5000Y51.0000
X96.7500Y48.0000
X59.0000Y70.7500
X67.2500Y70.0000
X70.2500Y67.0000
X48.2500Y70.7500
X56.2500Y51.7500
X103.0000Y69.0000
X100.7500Y67.0000
X68.7500Y62.0000
X56.5000Y53.0000
X50.7500Y48.0000
X100.7500Y53.0000
X108.7500Y51.0000
X41.0000Y69.0000
X43.0000Y67.0000
X56.0000Y47.7500
X112.5000Y51.0000
X121.0000Y71.7500
X108.0000Y56.5000
X97.7500Y53.2500
X113.5000Y48.5000
X132.7500Y27.5000
X136.2500Y24.0000
X76.2500Y61.0000
X105.5000Y58.5000
X112.5000Y45.7500
X112.7500Y32.0000
X91.2500Y41.0000
X104.7500Y35.2500
X124.2500Y35.2500
X131.5000Y23.5000
X133.7500Y21.2500
X40.0000Y68.0000
X42.0000Y66.0000
X53.5000Y54.5000
X65.0000Y55.2500
X62.7500Y57.5000
X52.7500Y73.7500
X51.0000Y78.5000
X9.2500Y91.0000
X66.0000Y56.2500
X54.5000Y58.5000
X44.0000Y68.0000
X36.5000Y70.0000
X13.5000Y81.5000
X59.0000Y41.0000
X58.7500Y37.2500
X77.5000Y41.0000
X77.2500Y37.2500
X83.0000Y38.7500
X98.5000Y68.2500
X109.0000Y68.2500
T2
X49.1400Y12.0000
X50.6400Y12.0000
X52.1400Y12.0000
X53.6400Y12.0000
X55.1400Y12.0000
X56.6400Y12.0000
X58.1400Y12.0000
X66.9200Y12.0000
X68.4200Y12.0000
X69.9200Y12.0000
X71.4200Y12.0000
X72.9200Y12.0000
X74.4200Y12.0000
X75.9200Y12.0000
X43.4800Y32.2000
X46.0800Y32.2000
X48.6800Y32.2000
X43.4800Y27.0000
X43.4800Y22.0000
X43.4800Y17.0000
X43.4800Y12.0000
X66.6800Y32.2000
X68.4300Y32.2000
X70.1800Y32.2000
T3
X8.9200Y88.5000
X19.0800Y88.5000
X8.9200Y85.5000
X19.0800Y85.5000
X23.2500Y87.0000
X25.7500Y87.0000
X7.2500Y16.0000
X10.7500Y16.0000
X134.2500Y60.0000
X136.7500Y60.0000
X46.9200Y44.3000
X57.0800Y44.3000
X57.0800Y41.5000
X46.9200Y41.5000
X46.9200Y38.7000
X57.0800Y38.7000
X46.9200Y35.9000
X57.0800Y35.9000
X65.4200Y44.3000
X75.5800Y44.3000
X75.5800Y41.5000
X65.4200Y41.5000
X65.4200Y38.7000
X75.5800Y38.7000
X65.4200Y35.9000
X75.5800Y35.9000
X82.9200Y44.3000
X93.0800Y44.3000
X93.0800Y41.5000
X82.9200Y41.5000
X96.4200Y44.3000
X106.5800Y44.3000
X106.5800Y41.5000
X96.4200Y41.5000
X115.6600Y18.5000
X118.2000Y18.5000
X120.7400Y18.5000
X110.5200Y29.5000
X120.6800Y29.5000
X120.6800Y26.7000
X110.5200Y26.7000
X130.9600Y37.5000
X136.0400Y37.5000
X126.7500Y16.0000
X124.2500Y16.0000
X37.5000Y77.8400
X37.5000Y88.0000
X40.5000Y88.0000
X40.5000Y77.8400
X36.9600Y73.5000
X42.0400Y73.5000
X46.5000Y77.8400
X46.5000Y88.0000
X49.5000Y88.0000
X49.5000Y77.8400
X45.9600Y73.5000
X51.0400Y73.5000
X58.0000Y88.0000
X58.0000Y77.8400
X57.4600Y73.5000
X62.5400Y73.5000
X67.0000Y88.0000
X67.0000Y77.8400
X70.0000Y77.8400
X70.0000Y88.0000
X65.9600Y73.5000
X71.0400Y73.5000
X75.5000Y88.0000
X75.5000Y77.8400
X78.5000Y77.8400
X78.5000Y88.0000
X81.5000Y88.0000
X81.5000Y77.8400
X76.9600Y73.5000
X82.0400Y73.5000
X86.0000Y88.0000
X86.0000Y77.8400
X89.0000Y77.8400
X89.0000Y88.0000
X92.0000Y88.0000
X92.0000Y77.8400
X87.4600Y73.5000
X92.5400Y73.5000
X96.5000Y88.0000
X96.5000Y77.8400
X99.5000Y77.8400
X99.5000Y88.0000
X102.5000Y77.8400
X102.5000Y88.0000
X103.0400Y73.5000
X97.9600Y73.5000
X107.0000Y88.0000
X107.0000Y77.8400
X110.0000Y77.8400
X110.0000Y88.0000
X113.0000Y77.8400
X113.0000Y88.0000
X113.5400Y73.5000
X108.4600Y73.5000
X119.5000Y77.8400
X119.5000Y88.0000
X122.5000Y88.0000
X122.5000Y77.8400
X124.0400Y73.5000
X118.9600Y73.5000
X121.5800Y65.6000
X111.4200Y65.6000
T4
X81.5800Y13.0000
X81.5800Y23.1600
X96.8200Y13.0000
X96.8200Y23.1600
X112.0600Y13.0000
X112.0600Y23.1600
T5
X106.2600Y64.8000
X106.2600Y49.5600
X103.7200Y64.8000
X103.7200Y49.5600
X101.1800Y64.8000
X101.1800Y49.5600
X98.6400Y64.8000
X98.6400Y49.5600
X96.1000Y64.8000
X96.1000Y49.5600
X93.5600Y64.8000
X93.5600Y49.5600
X91.0200Y64.8000
X91.0200Y49.5600
X88.4800Y64.8000
X88.4800Y49.5600
X85.9400Y64.8000
X85.9400Y49.5600
X83.4000Y64.8000
X83.4000Y49.5600
X80.8600Y64.8000
X80.8600Y49.5600
X78.3200Y64.8000
X78.3200Y49.5600
X75.7800Y64.8000
X75.7800Y49.5600
X73.2400Y64.8000
X73.2400Y49.5600
X70.7000Y64.8000
X70.7000Y49.5600
X68.1600Y64.8000
X68.1600Y49.5600
X65.6200Y64.8000
X65.6200Y49.5600
X63.0800Y64.8000
X63.0800Y49.5600
X60.5400Y64.8000
X60.5400Y49.5600
X58.0000Y64.8000
X58.0000Y49.5600
X4.5000Y89.0000
X4.5000Y86.4600
X4.5000Y83.9200
X4.5000Y81.3800
X4.5000Y78.8400
X4.5000Y76.3000
X10.5000Y95.5000
X13.0000Y95.5000
X15.5000Y95.5000
X18.0000Y95.5000
X38.0000Y95.5000
X40.5000Y95.5000
X47.0000Y95.5000
X49.5000Y95.5000
X58.0000Y95.5000
X60.5000Y95.5000
X77.0000Y95.5000
X79.5000Y95.5000
X87.5000Y95.5000
X90.0000Y95.5000
X97.0000Y95.5000
X99.5000Y95.5000
X102.0000Y95.5000
X107.5000Y95.5000
X110.0000Y95.5000
X112.5000Y95.5000
X119.0000Y95.5000
X121.5000Y95.5000
X124.0000Y95.5000
T6
X86.6600Y22.0000
X89.2000Y22.0000
X91.7400Y22.0000
X101.9000Y22.0000
X104.4400Y22.0000
X106.9800Y22.0000
T7
X18.0800Y7.0000
X23.1600Y7.0000
X28.2400Y7.0000
X33.3200Y7.0000
X38.4000Y7.0000
X43.4800Y7.0000
X48.5600Y7.0000
X53.6400Y7.0000
X66.3400Y7.0000
X71.4200Y7.0000
X81.5800Y7.0000
X86.6600Y7.0000
X96.8200Y7.0000
X101.9000Y7.0000
X112.0600Y7.0000
X117.1400Y7.0000
X122.2200Y7.0000
X127.3000Y7.0000
X132.3800Y7.0000
X137.4600Y7.0000
T8
X30.0000Y37.1200
X30.0000Y21.8800
X38.4000Y41.5700
X38.4000Y64.4300
T9
X9.5000Y24.5000
X19.5000Y24.5000
X9.5000Y63.5000
X19.5000Y63.5000
T0
M30
